<svg width="958" height="748" viewBox="0 0 958 748" fill="none" xmlns="http://www.w3.org/2000/svg">
<circle cx="373" cy="404" r="241" fill="#B3B0B0" fill-opacity="0.35"/>
<ellipse cx="824" cy="493.5" rx="134" ry="136.5" fill="#CACACA" fill-opacity="0.61"/>
<path d="M396.352 184.53C369.489 197.711 361.325 239.097 378.18 276.003C385.291 291.292 385.291 291.292 380.814 307.372C378.443 316.335 375.283 325.034 373.966 326.879C372.649 328.725 363.958 334.26 354.477 339.533C331.828 351.922 314.709 365.366 307.335 375.911C300.224 386.719 293.377 408.598 281.262 460.793C265.987 525.377 266.25 550.157 282.052 567.818C295.22 582.317 299.434 582.844 415.314 581.526C473.254 580.999 560.164 580.472 608.097 580.735C673.937 580.735 696.06 579.944 699.484 577.308C702.117 575.727 708.965 560.965 714.759 545.148C730.561 502.97 754 433.378 754 429.16C754 427.315 752.156 423.624 749.786 421.515C746.362 417.825 734.511 417.297 662.086 417.297C589.134 417.297 577.81 417.825 574.649 421.515C572.806 423.624 564.642 443.658 556.214 465.538C540.149 509.033 540.412 508.77 520.396 505.607C511.969 504.288 508.282 502.443 506.438 498.225C505.121 495.062 500.381 472.128 495.904 447.612C485.369 391.464 480.102 377.756 463.773 360.358C451.658 347.704 451.132 346.123 451.132 332.151C451.132 320.025 451.922 317.126 456.136 315.808C472.464 310.799 485.369 290.501 485.369 270.467C485.106 249.642 478.522 218.272 472.201 208.782C456.399 184.53 419.791 172.931 396.352 184.53ZM466.67 229.344C470.094 239.888 472.201 252.541 472.201 264.14C472.201 281.011 471.411 283.384 464.3 291.819C459.823 296.564 451.658 302.627 446.128 305C434.013 309.745 431.116 313.435 435.33 318.444C439.28 323.189 436.91 348.759 432.433 351.395C425.322 355.876 390.558 339.005 390.558 330.833C390.558 328.461 392.402 318.707 395.035 309.217C399.249 292.346 399.249 291.556 393.718 276.793C386.344 257.023 386.081 243.051 393.455 236.461C398.986 231.453 398.986 231.716 406.36 239.625C410.31 244.37 414.261 249.642 415.051 251.487C416.104 254.387 417.421 253.859 420.582 249.905C429.273 238.307 457.716 210.1 459.559 211.418C460.349 212.209 463.773 220.381 466.67 229.344ZM396.352 354.031C411.627 363.785 414.261 364.575 431.643 364.575C452.449 364.575 456.399 367.212 466.407 387.246C471.937 398.054 488.529 476.082 491.953 506.661C493.797 522.478 493.533 523.532 489.056 521.423C486.159 520.105 464.3 518.26 440.334 517.205C376.336 514.306 361.588 512.46 361.588 507.188C361.588 504.816 364.485 490.581 367.909 475.291C374.493 446.822 373.703 438.386 364.748 443.395C360.535 445.767 348.947 490.317 348.683 504.816C348.42 511.933 347.893 512.197 334.988 512.197C322.61 512.197 321.82 512.724 322.61 518.26C323.4 523.796 324.717 524.059 360.271 525.904C380.55 526.959 402.146 528.541 408.467 529.331L419.528 530.913V547.784V564.391L397.932 566.237C385.818 567.291 360.798 568.346 341.836 568.346C301.278 568.346 293.377 565.709 286.793 549.102C280.735 534.076 281.526 524.323 291.533 477.928C311.022 387.773 315.499 378.81 351.58 356.931C363.695 349.813 374.756 343.75 376.6 343.75C378.443 343.487 387.398 348.232 396.352 354.031ZM729.244 463.956C712.125 514.569 695.533 560.437 692.636 564.391C690.793 566.764 671.304 567.555 611.52 567.555C568.065 567.555 532.775 567.028 532.775 566.237C532.775 565.709 538.568 550.42 545.679 532.758C552.527 514.833 564.115 484.518 570.962 465.274L583.604 430.478H662.086H740.568L729.244 463.956ZM534.091 524.586C533.038 527.222 529.878 535.922 526.98 543.83C521.713 557.274 521.186 557.801 519.08 551.738C517.763 548.048 514.866 543.83 512.759 541.985C510.389 540.403 507.755 534.604 506.438 529.595L504.331 520.105H520.133C534.091 520.105 535.672 520.632 534.091 524.586ZM480.365 534.34C485.369 536.449 491.69 540.403 494.06 543.303C498.801 548.575 498.801 548.575 491.163 550.42C486.949 551.211 478.258 551.738 471.937 551.475C465.617 551.211 455.872 553.056 450.078 555.429C435.857 561.755 432.696 559.646 432.696 543.83V530.649H452.185C462.983 530.649 475.625 532.231 480.365 534.34Z" fill="#EAEAEA"/>
<ellipse cx="240.844" cy="390.728" rx="19.3893" ry="19.0581" transform="rotate(16.2748 240.844 390.728)" fill="#C9C9C9" fill-opacity="0.43"/>
<ellipse cx="785" cy="149" rx="147" ry="149" fill="#505050" fill-opacity="0.14"/>
<path d="M244 249C272 161 344.259 66.4 512.259 140C722.259 232 754.259 174 848.259 102" stroke="#919191" stroke-width="11"/>
<path d="M754 96H843C845.761 96 848 98.2386 848 101V180" stroke="#919191" stroke-width="11"/>
<circle cx="46" cy="226" r="46" fill="#D9D9D9" fill-opacity="0.23"/>
<circle cx="229" cy="663" r="85" fill="#D9D9D9" fill-opacity="0.46"/>
<ellipse cx="777.078" cy="612.728" rx="72" ry="49.5" transform="rotate(-29.7867 777.078 612.728)" fill="black" fill-opacity="0.1"/>
</svg>
