<svg width="1142" height="793" viewBox="0 0 1142 793" fill="none" xmlns="http://www.w3.org/2000/svg">
<circle cx="521" cy="426" r="367" fill="url(#paint0_linear_303_2)" fill-opacity="0.4"/>
<path d="M520.049 360.664C538.545 360.664 553.539 348.171 553.539 332.76C553.539 317.349 538.545 304.856 520.049 304.856C501.553 304.856 486.56 317.349 486.56 332.76C486.56 348.171 501.553 360.664 520.049 360.664Z" fill="black" stroke="black" stroke-width="16" stroke-miterlimit="10"/>
<path d="M475.64 455.384H568.161C573.682 448.28 576.958 439.832 576.958 430.808C576.958 405.656 552.326 385.304 521.931 385.304C491.535 385.304 466.904 405.72 466.904 430.808C466.843 439.896 470.058 448.28 475.64 455.384Z" fill="black" stroke="#010101" stroke-width="16" stroke-miterlimit="10"/>
<path d="M609.232 357.272C623.07 357.272 634.289 347.931 634.289 336.408C634.289 324.885 623.07 315.544 609.232 315.544C595.394 315.544 584.176 324.885 584.176 336.408C584.176 347.931 595.394 357.272 609.232 357.272Z" fill="black" stroke="black" stroke-width="16" stroke-miterlimit="10"/>
<path d="M575.926 428.246H645.21C649.336 422.934 651.762 416.598 651.762 409.814C651.762 390.998 633.319 375.702 610.568 375.702C587.817 375.702 569.374 390.934 569.374 409.814C569.374 416.598 571.8 422.934 575.926 428.246Z" fill="black" stroke="#010101" stroke-width="16" stroke-miterlimit="10"/>
<path d="M430.441 363.096C442.604 363.096 452.464 354.872 452.464 344.728C452.464 334.584 442.604 326.36 430.441 326.36C418.278 326.36 408.418 334.584 408.418 344.728C408.418 354.872 418.278 363.096 430.441 363.096Z" fill="black" stroke="black" stroke-width="16" stroke-miterlimit="10"/>
<path d="M401.198 425.304H462.049C465.689 420.632 467.813 415.064 467.813 409.112C467.813 392.6 451.614 379.16 431.654 379.16C411.694 379.16 395.495 392.536 395.495 409.112C395.434 415.128 397.558 420.696 401.198 425.304Z" fill="black" stroke="#010101" stroke-width="16" stroke-miterlimit="10"/>
<path d="M673.054 553H368.946C336.969 553 311 525.673 311 491.883V296.117C311 262.391 336.909 235 368.946 235H673.054C705.031 235 731 262.327 731 296.117V491.883C731 525.673 705.031 553 673.054 553Z" stroke="black" stroke-width="16" stroke-miterlimit="10"/>
<path d="M313 498H729" stroke="black" stroke-width="16" stroke-miterlimit="10"/>
<path d="M498 548L465 647" stroke="black" stroke-width="16" stroke-miterlimit="10"/>
<path d="M561 552L596 640" stroke="black" stroke-width="16" stroke-miterlimit="10"/>
<path d="M409 645H660" stroke="black" stroke-width="16" stroke-miterlimit="10"/>
<ellipse cx="72.9315" cy="520.543" rx="49.6556" ry="58" transform="rotate(-32.2164 72.9315 520.543)" fill="#0D0D0D" fill-opacity="0.18"/>
<path d="M242 174L300 202M300 122L316 174" stroke="black" stroke-width="11"/>
<circle cx="888" cy="711" r="50" fill="url(#paint1_linear_303_2)"/>
<ellipse cx="1059" cy="234.5" rx="83" ry="85.5" fill="url(#paint2_linear_303_2)"/>
<path d="M851.221 715.096L821.096 746.352L831.247 755.897L868.376 730.49M851.221 715.096L868.376 730.49M851.221 715.096L876.813 709L868.376 730.49" stroke="black" stroke-width="8"/>
<path d="M772.389 38.4651L654.613 52.0683L731.163 142.602L848.939 128.998L772.389 38.4651Z" fill="#222221" stroke="#222221" stroke-width="13.7444" stroke-miterlimit="10" stroke-linecap="round" stroke-linejoin="round"/>
<path d="M817.267 151.952L807.778 175.921L721.518 186.106L721.434 186.072L665.52 119.603L675.009 95.6343" stroke="#222221" stroke-width="15" stroke-miterlimit="10" stroke-linecap="round" stroke-linejoin="round"/>
<path d="M824.277 191.294L849.675 127.139" stroke="#222221" stroke-width="8" stroke-miterlimit="10" stroke-linecap="round" stroke-linejoin="round"/>
<path d="M807.23 201.754L822.34 194.829L828.616 210.22L807.23 201.754Z" stroke="#222221" stroke-width="9" stroke-miterlimit="10" stroke-linecap="round" stroke-linejoin="round"/>
<path d="M151.532 445.892L151.369 446.227L151.205 446.561L151.041 446.895L150.878 447.23L150.714 447.564L150.55 447.898L150.387 448.233L150.223 448.567L150.059 448.902L149.895 449.236L149.732 449.57L149.568 449.905L149.405 450.239L149.241 450.574L149.077 450.908L148.913 451.242L148.75 451.577L148.586 451.911L148.422 452.245L148.259 452.58L148.095 452.914L147.931 453.249L147.768 453.583L147.604 453.917L147.44 454.252L147.277 454.586L147.113 454.92L146.949 455.255L146.786 455.589L146.622 455.924L146.458 456.258L146.295 456.592L146.131 456.927L145.967 457.261L145.803 457.596L145.64 457.93L145.476 458.264L145.312 458.599L145.149 458.933L144.985 459.267L144.821 459.602L144.658 459.936L144.494 460.27L144.33 460.605L144.167 460.939L144.003 461.274L143.839 461.608L143.676 461.942L143.512 462.277L143.348 462.611L143.184 462.946L143.021 463.28L142.857 463.614L142.694 463.949L142.53 464.283L142.366 464.617L142.203 464.952L142.039 465.286L141.875 465.621L141.711 465.955L141.548 466.289L141.384 466.624L141.22 466.958L141.057 467.292L140.893 467.627L140.729 467.961L140.566 468.296L140.402 468.63L140.238 468.964L140.075 469.299L139.911 469.633L139.747 469.967L139.584 470.302L139.42 470.636L139.256 470.971L139.093 471.305L138.929 471.639L138.765 471.974L138.601 472.308L138.438 472.642L138.274 472.977L138.11 473.311L137.947 473.646L137.783 473.98L137.62 474.314L137.456 474.649L137.292 474.983L137.128 475.318L136.965 475.652L136.801 475.986L136.637 476.321L136.474 476.655L136.31 476.989L136.146 477.324L135.983 477.658L135.819 477.993L135.655 478.327L135.492 478.661L135.328 478.996L135.164 479.33L135.001 479.664L134.837 479.999L134.673 480.333L134.51 480.668L134.346 481.002L134.182 481.336L134.018 481.671L133.855 482.005L133.691 482.339L133.527 482.674L133.364 483.008L133.2 483.343L133.036 483.677L132.873 484.011L132.709 484.346L132.545 484.68L132.382 485.015L132.218 485.349L132.054 485.683L131.891 486.018L131.727 486.352L131.563 486.686L131.399 487.021L131.236 487.355L131.072 487.69L130.909 488.024L130.745 488.358L130.581 488.693L130.417 489.027L130.254 489.361L130.09 489.696L129.926 490.03L129.763 490.365L129.599 490.699L129.435 491.033L129.272 491.368L129.108 491.702L128.944 492.036L128.781 492.371L128.617 492.705L128.453 493.04L128.29 493.374L128.126 493.708L127.962 494.043L127.799 494.377L127.635 494.712L127.471 495.046L127.308 495.38L127.144 495.715L126.98 496.049L126.816 496.383L126.653 496.718L126.489 497.052L126.325 497.387L126.162 497.721L125.998 498.055L125.834 498.39L125.671 498.724L125.507 499.058L125.343 499.393L125.18 499.727L125.016 500.062L124.852 500.396L124.689 500.73L124.525 501.065L124.361 501.399L124.198 501.734L124.034 502.068L123.87 502.402L123.707 502.737L123.543 503.071L123.379 503.405L123.215 503.74L123.052 504.074L122.888 504.409L122.725 504.743L122.561 505.077L122.397 505.412L122.234 505.746L122.07 506.08L121.906 506.415L121.742 506.749L121.579 507.084L121.415 507.418L121.251 507.752L121.088 508.087L120.924 508.421L120.76 508.756L120.597 509.09L120.433 509.424L120.269 509.759L120.106 510.093L119.942 510.427L119.778 510.762L119.615 511.096L119.451 511.431L119.287 511.765L119.124 512.099L118.96 512.434L118.796 512.768L118.632 513.102L118.469 513.437L118.305 513.771L118.142 514.106L117.978 514.44L117.814 514.774L117.65 515.109L117.487 515.443L117.323 515.777L117.159 516.112L116.996 516.446L116.832 516.781L116.668 517.115L116.505 517.449L116.341 517.784L116.177 518.118L116.014 518.453L115.85 518.787L115.686 519.121L115.523 519.456L115.359 519.79L115.195 520.124L115.031 520.459L114.868 520.793L114.704 521.127L114.541 521.462L114.377 521.796L114.213 522.131L114.049 522.465L113.886 522.799L113.722 523.134L113.558 523.468L113.395 523.803L113.231 524.137L113.067 524.471L112.904 524.806L112.74 525.14L112.576 525.475L112.413 525.809L112.249 526.143L112.085 526.478L111.922 526.812L111.758 527.146L111.594 527.481L111.431 527.815L111.267 528.15L111.103 528.484L110.94 528.818L110.776 529.153L110.612 529.487L110.448 529.821L110.285 530.156L110.121 530.49L109.957 530.825L109.794 531.159L109.63 531.493L109.617 531.359L109.603 531.224L109.59 531.089L109.576 530.954L109.562 530.819L109.549 530.685L109.535 530.55L109.522 530.415L109.508 530.28L109.495 530.145L109.481 530.01L109.468 529.876L109.454 529.741L109.441 529.606L109.427 529.471L109.414 529.337L109.4 529.202L109.387 529.067L109.373 528.932L109.36 528.797L109.346 528.662L109.333 528.528L109.319 528.393L109.306 528.258L109.292 528.123L109.279 527.988L109.265 527.854L109.252 527.719L109.238 527.584L109.225 527.449L109.211 527.314L109.198 527.18L109.184 527.045L109.171 526.91L109.157 526.775L109.144 526.64L109.13 526.505L109.117 526.371L109.103 526.236L109.089 526.101L109.076 525.966L109.062 525.832L109.049 525.697L109.035 525.562L109.022 525.427L109.008 525.292L108.995 525.157L108.981 525.023L108.968 524.888L108.954 524.753L108.941 524.618L108.927 524.483L108.914 524.349L108.9 524.214L108.887 524.079L108.873 523.944L108.86 523.809L108.846 523.675L108.833 523.54L108.819 523.405L108.806 523.27L108.792 523.135L108.779 523.001L108.765 522.866L108.752 522.731L108.738 522.596L108.725 522.461L108.711 522.327L108.697 522.192L108.684 522.057L108.67 521.922L108.657 521.787L108.643 521.652L108.63 521.518L108.616 521.383L108.603 521.248L108.589 521.113L108.576 520.979L108.562 520.844L108.549 520.709L108.535 520.574L108.522 520.439L108.508 520.304L108.495 520.17L108.481 520.035L108.468 519.9L108.454 519.765L108.441 519.63L108.427 519.496L108.414 519.361L108.4 519.226L108.387 519.091L108.373 518.957L108.36 518.822L108.346 518.687L108.332 518.552L108.319 518.417L108.305 518.282L108.292 518.147L108.278 518.013L108.265 517.878L108.251 517.743L108.238 517.608L108.224 517.474L108.211 517.339L108.197 517.204L108.184 517.069L108.17 516.934L108.157 516.8L108.143 516.665L108.13 516.53L108.116 516.395L108.103 516.26L108.089 516.125L108.076 515.991L108.062 515.856L108.049 515.721L108.035 515.586L108.022 515.452L108.008 515.317L107.995 515.182L107.981 515.047L107.968 514.912L107.954 514.777L107.941 514.643L107.927 514.508L107.914 514.373L107.9 514.238L107.887 514.104L107.873 513.969L107.859 513.834L107.846 513.699L107.832 513.564L107.819 513.429L107.805 513.295L107.792 513.16L107.778 513.025L107.765 512.89L107.751 512.755L107.738 512.62L107.724 512.486L107.711 512.351L107.697 512.216L107.684 512.081L107.67 511.947L107.657 511.812L107.643 511.677L107.63 511.542L107.616 511.407L107.603 511.272L107.589 511.138L107.576 511.003L107.562 510.868L107.549 510.733L107.535 510.598L107.522 510.464L107.508 510.329L107.495 510.194L107.481 510.059L107.468 509.924L107.454 509.79L107.441 509.655L107.427 509.52L107.414 509.385L107.4 509.25L107.387 509.116L107.373 508.981L107.36 508.846L107.346 508.711L107.333 508.576L107.319 508.442L107.305 508.307L107.292 508.172L107.278 508.037L107.265 507.902L107.251 507.767L107.238 507.633L107.224 507.498L107.211 507.363L107.197 507.228L107.184 507.094L107.17 506.959L107.157 506.824L107.143 506.689L107.13 506.554L107.116 506.419L107.103 506.285L107.089 506.15L107.076 506.015L107.062 505.88L107.048 505.745L107.035 505.611L107.022 505.476L107.008 505.341L106.994 505.206L106.981 505.071L106.967 504.937L106.954 504.802L106.94 504.667L106.927 504.532L106.913 504.397L106.9 504.263L106.886 504.128L106.873 503.993L106.859 503.858L106.846 503.723L106.832 503.589L106.819 503.454L106.805 503.319L106.792 503.184L106.778 503.049L106.765 502.914L106.751 502.78L106.738 502.645L106.724 502.51L106.711 502.375L106.697 502.241L106.684 502.106L106.67 501.971L106.657 501.836L106.643 501.701L106.63 501.566L106.616 501.432L106.603 501.297L106.589 501.162L106.576 501.027L106.562 500.892L106.549 500.758L106.535 500.623L106.521 500.488L106.508 500.353L106.494 500.218L106.481 500.084L106.467 499.949L106.454 499.814L106.44 499.679L106.427 499.544L106.413 499.41L106.4 499.275L106.386 499.14L106.373 499.005L106.359 498.87L106.346 498.736L106.332 498.601L106.319 498.466L106.305 498.331L106.292 498.196L106.278 498.061L106.265 497.927L106.251 497.792L106.238 497.657L106.224 497.522L106.211 497.387L106.197 497.253L106.184 497.118L106.17 496.983L106.063 497.084L105.956 497.185L105.849 497.285L105.742 497.386L105.635 497.487L105.527 497.587L105.42 497.688L105.313 497.789L105.206 497.89L105.099 497.991L104.992 498.091L104.885 498.192L104.778 498.293L104.671 498.394L104.564 498.494L104.457 498.595L104.35 498.696L104.242 498.797L104.135 498.897L104.028 498.998L103.921 499.099L103.814 499.2L103.707 499.3L103.6 499.401L103.493 499.502L103.386 499.603L103.279 499.703L103.172 499.804L103.065 499.905L102.957 500.006L102.85 500.106L102.743 500.207L102.636 500.308L102.529 500.409L102.422 500.509L102.315 500.61L102.208 500.711L102.101 500.812L101.994 500.912L101.887 501.013L101.78 501.114L101.673 501.215L101.565 501.315L101.458 501.416L101.351 501.517L101.244 501.618L101.137 501.718L101.03 501.819L100.923 501.92L100.816 502.021L100.709 502.122L100.602 502.222L100.495 502.323L100.388 502.424L100.28 502.524L100.173 502.625L100.066 502.726L99.9592 502.827L99.8521 502.927L99.745 503.028L99.6379 503.129L99.5308 503.23L99.4238 503.33L99.3167 503.431L99.2096 503.532L99.1025 503.633L98.9955 503.733L98.8884 503.834L98.7813 503.935L98.6742 504.036L98.5671 504.137L98.4601 504.237L98.353 504.338L98.2459 504.439L98.1388 504.54L98.0317 504.64L97.9246 504.741L97.8176 504.842L97.7105 504.942L97.6034 505.043L97.4963 505.144L97.3892 505.245L97.2822 505.345L97.1751 505.446L97.068 505.547L96.9609 505.648L96.8538 505.749L96.7468 505.849L96.6397 505.95L96.5326 506.051L96.4255 506.152L96.3184 506.252L96.2113 506.353L96.1043 506.454L95.9972 506.555L95.8901 506.655L95.783 506.756L95.6759 506.857L95.5688 506.958L95.4617 507.058L95.3546 507.159L95.2476 507.26L95.1405 507.36L95.0334 507.461L94.9263 507.562L94.8192 507.663L94.7121 507.764L94.605 507.864L94.498 507.965L94.3909 508.066L94.2838 508.167L94.1767 508.267L94.0696 508.368L93.9626 508.469L93.8555 508.57L93.7484 508.67L93.6413 508.771L93.5342 508.872L93.4272 508.973L93.3201 509.073L93.213 509.174L93.1059 509.275L92.9988 509.376L92.8918 509.476L92.7847 509.577L92.6776 509.678L92.5705 509.779L92.4634 509.879L92.3564 509.98L92.2493 510.081L92.1422 510.182L92.0351 510.282L91.928 510.383L91.821 510.484L91.7139 510.585L91.6066 510.685L91.4995 510.786L91.3924 510.887L91.2854 510.987L91.1783 511.088L91.0712 511.189L90.9641 511.29L90.857 511.391L90.75 511.491L90.6429 511.592L90.5358 511.693L90.4287 511.794L90.3216 511.894L90.2145 511.995L90.1075 512.096L90.0004 512.197L89.8933 512.297L89.7862 512.398L89.6791 512.499L89.5721 512.6L89.465 512.7L89.3579 512.801L89.2508 512.902L89.1437 513.003L89.0367 513.103L88.9296 513.204L88.8225 513.305L88.7154 513.406L88.6083 513.506L88.5012 513.607L88.3941 513.708L88.287 513.809L88.1799 513.909L88.0728 514.01L87.9657 514.111L87.8587 514.212L87.7516 514.312L87.6445 514.413L87.5374 514.514L87.4304 514.615L87.3233 514.715L87.2162 514.816L87.1091 514.917L87.002 515.018L86.8949 515.119L86.7879 515.219L86.6808 515.32L86.5737 515.421L86.4666 515.522L86.3595 515.622L86.2525 515.723L86.1454 515.824L86.0383 515.924L85.9312 516.025L85.8241 516.126L85.7171 516.227L85.61 516.327L85.5029 516.428L85.3958 516.529L85.2887 516.63L85.1817 516.73L85.0746 516.831L84.9675 516.932L84.8604 517.033L84.7533 517.134L84.6462 517.234L84.5392 517.335L84.4321 517.436L84.325 517.537L84.2179 517.637L84.1108 517.738L84.0038 517.839L83.8967 517.94L83.7896 518.04L83.6825 518.141L83.5755 518.242L83.4684 518.342L83.3613 518.443L83.2542 518.544L83.1471 518.645L83.04 518.746L82.933 518.846L82.8259 518.947L82.7188 519.048L82.6117 519.149L82.5046 519.249L82.3976 519.35L82.2905 519.451L82.1834 519.552L82.0763 519.652L81.9692 519.753L81.8622 519.854L81.7551 519.955L81.648 520.055L81.5409 520.156L81.4338 520.257L81.3267 520.358L81.2196 520.458L81.1125 520.559L81.0054 520.66L80.8983 520.761L80.7912 520.861L80.6842 520.962L80.5771 521.063L80.47 521.164L80.3629 521.264L80.2558 521.365L80.1488 521.466L80.0417 521.567L79.9346 521.667L79.8275 521.768L79.7205 521.869L79.6134 521.97L79.5063 522.07L79.3992 522.171L79.2921 522.272L79.185 522.373L79.078 522.473L78.9709 522.574L78.8638 522.675L78.7567 522.776L78.7232 522.734L78.6897 522.691L78.6562 522.649L78.6226 522.607L78.589 522.565L78.5556 522.523L78.5221 522.48L78.4886 522.438L78.4551 522.396L78.4216 522.354L78.3881 522.312L78.3546 522.27L78.3209 522.228L78.2874 522.185L78.254 522.143L78.2204 522.101L78.187 522.059L78.1535 522.017L78.1199 521.975L78.0865 521.932L78.0529 521.89L78.0195 521.848L77.986 521.806L77.9523 521.764L77.9188 521.721L77.8853 521.679L77.8518 521.637L77.8183 521.595L77.7848 521.553L77.7513 521.511L77.7179 521.468L77.6843 521.426L77.6508 521.384L77.6172 521.342L77.5836 521.3L77.5502 521.258L77.5167 521.215L77.4832 521.173L77.4497 521.131L77.4162 521.089L77.3827 521.047L77.3492 521.005L77.3157 520.963L77.2822 520.92L77.2485 520.878L77.215 520.836L77.1815 520.794L77.148 520.752L77.1145 520.71L77.0811 520.667L77.0475 520.625L77.0141 520.583L76.9805 520.541L76.9471 520.499L76.9134 520.456L76.8798 520.414L76.8464 520.372L76.8129 520.33L76.7794 520.288L76.7459 520.246L76.7125 520.203L76.6789 520.161L76.6454 520.119L76.6117 520.077L76.5782 520.035L76.5448 519.993L76.5112 519.951L76.4778 519.908L76.4443 519.866L76.4107 519.824L76.3773 519.782L76.3437 519.74L76.3103 519.698L76.2768 519.655L76.2433 519.613L76.2096 519.571L76.1761 519.529L76.1426 519.487L76.1091 519.444L76.0757 519.402L76.0421 519.36L76.0087 519.318L75.9751 519.276L75.9416 519.234L75.908 519.191L75.8744 519.149L75.841 519.107L75.8075 519.065L75.774 519.023L75.7405 518.981L75.7069 518.939L75.6735 518.896L75.64 518.854L75.6065 518.812L75.573 518.77L75.5393 518.728L75.5058 518.686L75.4723 518.643L75.4388 518.601L75.4053 518.559L75.3719 518.517L75.3383 518.475L75.3049 518.433L75.2713 518.391L75.2377 518.348L75.2042 518.306L75.1706 518.264L75.1372 518.222L75.1037 518.179L75.0702 518.137L75.0367 518.095L75.0033 518.053L74.9697 518.011L74.9362 517.969L74.9025 517.927L74.869 517.884L74.8356 517.842L74.802 517.8L74.7686 517.758L74.7351 517.716L74.7015 517.674L74.6681 517.631L74.6346 517.589L74.6011 517.547L74.5676 517.505L74.5341 517.463L74.5004 517.421L74.4669 517.378L74.4334 517.336L74.3999 517.294L74.3665 517.252L74.3329 517.21L74.2995 517.168L74.2659 517.125L74.2324 517.083L74.1988 517.041L74.1652 516.999L74.1318 516.957L74.0983 516.914L74.0648 516.872L74.0313 516.83L73.9978 516.788L73.9643 516.746L73.9308 516.704L73.8973 516.662L73.8638 516.619L73.8302 516.577L73.7966 516.535L73.7632 516.493L73.7296 516.451L73.6961 516.409L73.6627 516.366L73.6291 516.324L73.5957 516.282L73.5622 516.24L73.5285 516.198L73.495 516.155L73.4615 516.113L73.428 516.071L73.3945 516.029L73.361 515.987L73.3275 515.945L73.294 515.902L73.2605 515.86L73.227 515.818L73.1933 515.776L73.1598 515.734L73.1264 515.692L73.0928 515.65L73.0594 515.607L73.0259 515.565L72.9924 515.523L72.9589 515.481L72.9254 515.439L72.8919 515.397L72.8584 515.354L72.8247 515.312L72.7912 515.27L72.7578 515.228L72.7242 515.186L72.6907 515.144L72.6573 515.101L72.6237 515.059L72.5903 515.017L72.5567 514.975L72.5232 514.933L72.4896 514.89L72.4561 514.848L72.4226 514.806L72.3891 514.764L72.3556 514.722L72.3221 514.68L72.2886 514.638L72.2551 514.595L72.2216 514.553L72.1881 514.511L72.1546 514.469L72.121 514.427L72.0874 514.385L72.054 514.342L72.0205 514.3L71.987 514.258L71.9535 514.216L71.9199 514.174L71.8865 514.132L71.853 514.089L71.8193 514.047L71.7858 514.005L71.7523 513.963L71.7188 513.921L71.6853 513.879L71.6518 513.837L71.6183 513.794L71.5849 513.752L71.5513 513.71L71.5178 513.668L71.4843 513.626L71.4507 513.583L71.4172 513.541L71.3836 513.499L71.3502 513.457L71.3167 513.415L71.2832 513.373L71.2497 513.33L71.2162 513.288L71.1827 513.246L71.1492 513.204L71.1155 513.162L71.082 513.12L71.0486 513.077L71.015 513.035L70.9816 512.993L70.9481 512.951L70.9145 512.909L70.8811 512.867L70.8475 512.825L70.8141 512.782L70.7804 512.74L70.7469 512.698L70.7134 512.656L70.6799 512.614L70.6464 512.571L70.6129 512.529L70.5794 512.487L70.5459 512.445L70.5124 512.403L70.4789 512.361L70.4454 512.318L70.4118 512.276L70.3782 512.234L70.3448 512.192L70.3113 512.15L70.2778 512.108L70.2443 512.065L70.2108 512.023L70.1773 511.981L70.2844 511.88L70.3915 511.78L70.4985 511.679L70.6056 511.578L70.7127 511.477L70.8198 511.377L70.9269 511.276L71.034 511.175L71.141 511.074L71.2481 510.974L71.3552 510.873L71.4623 510.772L71.5693 510.671L71.6764 510.571L71.7835 510.47L71.8906 510.369L71.9977 510.268L72.1047 510.168L72.2118 510.067L72.3189 509.966L72.426 509.865L72.5331 509.764L72.6402 509.664L72.7472 509.563L72.8543 509.462L72.9614 509.362L73.0685 509.261L73.1756 509.16L73.2826 509.059L73.3897 508.959L73.4968 508.858L73.6039 508.757L73.711 508.656L73.818 508.556L73.9251 508.455L74.0322 508.354L74.1393 508.253L74.2464 508.152L74.3534 508.052L74.4605 507.951L74.5676 507.85L74.6747 507.749L74.7818 507.649L74.8889 507.548L74.996 507.447L75.1031 507.347L75.2102 507.246L75.3173 507.145L75.4243 507.044L75.5314 506.944L75.6385 506.843L75.7456 506.742L75.8527 506.641L75.9597 506.541L76.0668 506.44L76.1739 506.339L76.281 506.238L76.3881 506.137L76.4952 506.037L76.6022 505.936L76.7093 505.835L76.8164 505.734L76.9235 505.634L77.0306 505.533L77.1376 505.432L77.2447 505.331L77.3518 505.231L77.4589 505.13L77.566 505.029L77.673 504.929L77.7801 504.828L77.8872 504.727L77.9943 504.626L78.1014 504.525L78.2085 504.425L78.3155 504.324L78.4226 504.223L78.5297 504.122L78.6368 504.022L78.7439 503.921L78.8509 503.82L78.958 503.719L79.0651 503.619L79.1722 503.518L79.2794 503.417L79.3865 503.317L79.4936 503.216L79.6007 503.115L79.7078 503.014L79.8149 502.913L79.9219 502.813L80.029 502.712L80.1361 502.611L80.2432 502.51L80.3503 502.41L80.4573 502.309L80.5644 502.208L80.6715 502.107L80.7786 502.007L80.8857 501.906L80.9927 501.805L81.0998 501.704L81.2069 501.604L81.314 501.503L81.4211 501.402L81.5281 501.301L81.6352 501.201L81.7423 501.1L81.8494 500.999L81.9566 500.898L82.0637 500.798L82.1707 500.697L82.2778 500.596L82.3849 500.495L82.492 500.395L82.5991 500.294L82.7061 500.193L82.8132 500.092L82.9203 499.992L83.0274 499.891L83.1344 499.79L83.2415 499.689L83.3486 499.589L83.4557 499.488L83.5628 499.387L83.6698 499.286L83.7769 499.186L83.884 499.085L83.9911 498.984L84.0982 498.883L84.2053 498.782L84.3123 498.682L84.4194 498.581L84.5265 498.48L84.6336 498.38L84.7406 498.279L84.8477 498.178L84.9548 498.077L85.0619 497.977L85.169 497.876L85.2761 497.775L85.3831 497.674L85.4902 497.574L85.5973 497.473L85.7044 497.372L85.8115 497.271L85.9185 497.171L86.0256 497.07L86.1327 496.969L86.2398 496.868L86.3469 496.767L86.454 496.667L86.561 496.566L86.6681 496.465L86.7752 496.365L86.8823 496.264L86.9893 496.163L87.0964 496.062L87.2035 495.962L87.3106 495.861L87.4177 495.76L87.5247 495.659L87.6318 495.559L87.7389 495.458L87.846 495.357L87.9531 495.256L88.0602 495.155L88.1672 495.055L88.2743 494.954L88.3814 494.853L88.4885 494.752L88.5956 494.652L88.7026 494.551L88.8098 494.45L88.9169 494.349L89.0239 494.249L89.131 494.148L89.2381 494.047L89.3452 493.946L89.4523 493.846L89.5594 493.745L89.6665 493.644L89.7735 493.544L89.8806 493.443L89.9877 493.342L90.0948 493.241L90.2019 493.14L90.309 493.04L90.416 492.939L90.5231 492.838L90.6302 492.737L90.7373 492.637L90.8443 492.536L90.9514 492.435L91.0585 492.334L91.1656 492.234L91.2729 492.133L91.3799 492.032L91.487 491.932L91.5941 491.831L91.7012 491.73L91.8083 491.629L91.9154 491.528L92.0224 491.428L92.1295 491.327L92.2366 491.226L92.3437 491.125L92.4508 491.025L92.5578 490.924L92.6649 490.823L92.772 490.722L92.8791 490.622L92.9862 490.521L93.0932 490.42L93.2003 490.319L93.3074 490.219L93.4145 490.118L93.5216 490.017L93.6286 489.917L93.7357 489.816L93.8428 489.715L93.9499 489.614L94.057 489.513L94.1641 489.413L94.2711 489.312L94.3782 489.211L94.4853 489.11L94.5924 489.01L94.6994 488.909L94.8065 488.808L94.9136 488.707L95.0207 488.607L95.1278 488.506L95.2349 488.405L95.3419 488.304L95.449 488.204L95.5561 488.103L95.6632 488.002L95.7703 487.901L95.8773 487.801L95.9844 487.7L96.0916 487.599L96.1987 487.498L96.3057 487.398L96.4128 487.297L96.5199 487.196L96.627 487.095L96.7341 486.995L96.8412 486.894L96.9483 486.793L97.0553 486.692L97.1624 486.592L97.2695 486.491L97.3766 486.39L97.4836 486.289L97.5907 486.189L97.4737 486.159L97.3567 486.13L97.2398 486.101L97.1229 486.071L97.0059 486.042L96.8888 486.012L96.7721 485.983L96.6551 485.954L96.538 485.924L96.4211 485.895L96.3041 485.866L96.1872 485.836L96.0702 485.807L95.9532 485.777L95.8362 485.748L95.7194 485.719L95.6024 485.689L95.4854 485.66L95.3684 485.631L95.2514 485.601L95.1346 485.572L95.0175 485.543L94.9006 485.513L94.7836 485.484L94.6665 485.455L94.5498 485.425L94.4328 485.396L94.3157 485.367L94.1987 485.337L94.0817 485.308L93.9649 485.278L93.848 485.249L93.7309 485.22L93.6139 485.19L93.4971 485.161L93.3801 485.132L93.2631 485.102L93.146 485.073L93.0291 485.043L92.9123 485.014L92.7952 484.985L92.6783 484.955L92.5612 484.926L92.4442 484.897L92.3275 484.867L92.2104 484.838L92.0934 484.809L91.9765 484.779L91.8594 484.75L91.7426 484.721L91.6256 484.691L91.5086 484.662L91.3916 484.632L91.2747 484.603L91.1578 484.574L91.0408 484.544L90.9237 484.515L90.8068 484.486L90.6899 484.456L90.5729 484.427L90.456 484.398L90.3389 484.368L90.2221 484.339L90.1052 484.309L89.9881 484.28L89.8711 484.251L89.7541 484.221L89.6371 484.192L89.5203 484.163L89.4033 484.133L89.2863 484.104L89.1692 484.075L89.0525 484.045L88.9355 484.016L88.8184 483.987L88.7014 483.957L88.5845 483.928L88.4676 483.898L88.3506 483.869L88.2336 483.84L88.1166 483.81L87.9998 483.781L87.8828 483.752L87.7658 483.722L87.6488 483.693L87.5318 483.663L87.415 483.634L87.2979 483.605L87.181 483.575L87.064 483.546L86.9469 483.517L86.8302 483.487L86.7132 483.458L86.5961 483.429L86.4792 483.399L86.3623 483.37L86.2453 483.341L86.1284 483.311L86.0113 483.282L85.8943 483.252L85.7776 483.223L85.6605 483.194L85.5435 483.164L85.4265 483.135L85.3095 483.106L85.1927 483.076L85.0756 483.047L84.9587 483.018L84.8417 482.988L84.7246 482.959L84.6079 482.929L84.4908 482.9L84.3738 482.871L84.2569 482.841L84.14 482.812L84.023 482.783L83.906 482.753L83.789 482.724L83.672 482.695L83.5552 482.665L83.4382 482.636L83.3212 482.607L83.2042 482.577L83.0872 482.548L82.9703 482.519L82.8534 482.489L82.7364 482.46L82.6193 482.43L82.5024 482.401L82.3856 482.372L82.2685 482.342L82.1516 482.313L82.0346 482.283L81.9177 482.254L81.8007 482.225L81.6837 482.195L81.5667 482.166L81.4497 482.137L81.3329 482.107L81.2159 482.078L81.0989 482.049L80.9819 482.019L80.8651 481.99L80.748 481.961L80.6311 481.931L80.5141 481.902L80.397 481.873L80.2801 481.843L80.1633 481.814L80.0462 481.784L79.9293 481.755L79.8122 481.726L79.6954 481.696L79.5784 481.667L79.4614 481.638L79.3444 481.608L79.2273 481.579L79.1106 481.55L78.9936 481.52L78.8765 481.491L78.7596 481.461L78.6427 481.432L78.5257 481.403L78.4088 481.373L78.2917 481.344L78.1747 481.315L78.058 481.285L77.9409 481.256L77.8239 481.227L77.707 481.197L77.5899 481.168L77.4731 481.139L77.356 481.109L77.2391 481.08L77.1221 481.05L77.005 481.021L76.8883 480.992L76.7713 480.962L76.6543 480.933L76.5373 480.904L76.4204 480.874L76.3034 480.845L76.1865 480.815L76.0694 480.786L75.9524 480.757L75.8356 480.727L75.7186 480.698L75.6016 480.669L75.4846 480.639L75.3678 480.61L75.2508 480.581L75.1338 480.551L75.0168 480.522L74.8997 480.493L74.7828 480.463L74.666 480.434L74.5489 480.405L74.4319 480.375L74.315 480.346L74.1981 480.316L74.0811 480.287L73.9641 480.258L73.8471 480.228L73.7301 480.199L73.6133 480.17L73.4963 480.14L73.3793 480.111L73.2623 480.081L73.1455 480.052L73.0284 480.023L72.9115 479.993L72.7945 479.964L72.6774 479.935L72.5607 479.905L72.4437 479.876L72.3266 479.847L72.2097 479.817L72.0927 479.788L71.9758 479.759L71.8589 479.729L71.7418 479.7L71.6248 479.67L71.5078 479.641L71.391 479.612L71.274 479.582L71.1569 479.553L71.04 479.524L70.9232 479.494L70.8061 479.465L70.6892 479.436L70.5722 479.406L70.4551 479.377L70.3384 479.347L70.2213 479.318L70.1043 479.289L69.9874 479.259L69.8705 479.23L69.7535 479.201L69.6365 479.171L69.5195 479.142L69.4025 479.113L69.2855 479.083L69.1687 479.054L69.0517 479.025L68.9347 478.995L68.8177 478.966L68.7008 478.936L68.5839 478.907L68.4669 478.878L68.3498 478.848L68.2328 478.819L68.116 478.79L67.999 478.76L67.882 478.731L67.7651 478.701L67.6482 478.672L67.9758 478.544L68.3035 478.416L68.6311 478.288L68.9588 478.16L69.2865 478.032L69.6141 477.904L69.9419 477.776L70.2695 477.648L70.5971 477.52L70.9249 477.392L71.2525 477.264L71.5802 477.136L71.9079 477.008L72.2355 476.88L72.5632 476.751L72.8908 476.623L73.2186 476.495L73.5463 476.367L73.8738 476.239L74.2016 476.111L74.5293 475.983L74.8569 475.855L75.1846 475.727L75.5122 475.599L75.8399 475.471L76.1677 475.343L76.4953 475.215L76.8229 475.087L77.1505 474.959L77.4783 474.831L77.806 474.703L78.1336 474.575L78.4613 474.447L78.789 474.319L79.1166 474.191L79.4444 474.063L79.7721 473.934L80.0997 473.806L80.4274 473.678L80.7551 473.55L81.0827 473.422L81.4103 473.294L81.738 473.166L82.0657 473.038L82.3933 472.91L82.7211 472.782L83.0488 472.654L83.3763 472.526L83.7041 472.398L84.0318 472.27L84.3594 472.142L84.6872 472.014L85.0148 471.886L85.3424 471.758L85.67 471.63L85.9978 471.502L86.3254 471.373L86.653 471.245L86.9808 471.118L87.3085 470.989L87.6361 470.861L87.9639 470.733L88.2915 470.605L88.6191 470.477L88.9467 470.349L89.2746 470.221L89.6021 470.093L89.9297 469.965L90.2576 469.837L90.5852 469.709L90.9128 469.581L91.2406 469.453L91.5682 469.325L91.8958 469.197L92.2236 469.069L92.5513 468.941L92.8788 468.813L93.2064 468.685L93.5343 468.556L93.8619 468.428L94.1895 468.3L94.5173 468.172L94.8449 468.044L95.1725 467.916L95.5004 467.788L95.828 467.66L96.1555 467.532L96.4833 467.404L96.811 467.276L97.1386 467.148L97.4662 467.02L97.794 466.892L98.1216 466.764L98.4492 466.636L98.7771 466.508L99.1047 466.38L99.4322 466.252L99.7601 466.124L100.088 465.996L100.415 465.868L100.743 465.739L101.071 465.611L101.398 465.483L101.726 465.355L102.054 465.227L102.381 465.099L102.709 464.971L103.037 464.843L103.364 464.715L103.692 464.587L104.02 464.459L104.347 464.331L104.675 464.203L105.003 464.075L105.33 463.947L105.658 463.819L105.986 463.691L106.314 463.563L106.641 463.435L106.969 463.307L107.297 463.178L107.624 463.05L107.952 462.922L108.28 462.794L108.607 462.666L108.935 462.538L109.263 462.41L109.59 462.282L109.918 462.154L110.245 462.026L110.573 461.898L110.901 461.77L111.229 461.642L111.556 461.514L111.884 461.386L112.212 461.258L112.539 461.13L112.867 461.002L113.195 460.874L113.522 460.746L113.85 460.618L114.178 460.49L114.505 460.361L114.833 460.233L115.161 460.105L115.488 459.977L115.816 459.849L116.144 459.721L116.471 459.593L116.799 459.465L117.127 459.337L117.454 459.209L117.782 459.081L118.11 458.953L118.437 458.825L118.765 458.697L119.093 458.569L119.42 458.441L119.748 458.313L120.076 458.185L120.403 458.057L120.731 457.928L121.059 457.801L121.386 457.673L121.714 457.544L122.042 457.416L122.369 457.288L122.697 457.16L123.025 457.032L123.352 456.904L123.68 456.776L124.008 456.648L124.336 456.52L124.663 456.392L124.991 456.264L125.319 456.136L125.646 456.008L125.974 455.88L126.302 455.752L126.629 455.624L126.957 455.496L127.285 455.368L127.612 455.24L127.94 455.112L128.268 454.984L128.595 454.856L128.923 454.728L129.251 454.599L129.578 454.471L129.906 454.343L130.234 454.215L130.561 454.087L130.889 453.959L131.217 453.831L131.544 453.703L131.872 453.575L132.2 453.447L132.527 453.319L132.855 453.191L133.183 453.063L133.51 452.935L133.838 452.807L134.166 452.679L134.493 452.551L134.821 452.423L135.149 452.295L135.476 452.166L135.804 452.038L136.132 451.91L136.459 451.782L136.787 451.654L137.115 451.526L137.442 451.398L137.77 451.27L138.098 451.142L138.425 451.014L138.753 450.886L139.081 450.758L139.408 450.63L139.736 450.502L140.064 450.374L140.391 450.246L140.719 450.118L141.047 449.99L141.374 449.862L141.702 449.734L142.03 449.606L142.358 449.478L142.685 449.349L143.013 449.221L143.341 449.093L143.668 448.965L143.996 448.837L144.324 448.709L144.651 448.581L144.979 448.453L145.307 448.325L145.634 448.197L145.962 448.069L146.289 447.941L146.617 447.813L146.945 447.685L147.273 447.557L147.6 447.429L147.928 447.301L148.256 447.173L148.583 447.045L148.911 446.917L149.239 446.788L149.566 446.661L149.894 446.533L150.222 446.404L150.549 446.276L150.877 446.148L151.205 446.02L151.532 445.892Z" fill="black"/>
<defs>
<linearGradient id="paint0_linear_303_2" x1="371.517" y1="282.266" x2="764.389" y2="493.076" gradientUnits="userSpaceOnUse">
<stop stop-color="#D9D9D9"/>
<stop offset="1" stop-color="#737373"/>
</linearGradient>
<linearGradient id="paint1_linear_303_2" x1="838" y1="746.489" x2="938" y2="675.511" gradientUnits="userSpaceOnUse">
<stop offset="0.302885" stop-color="#D9D9D9"/>
<stop offset="1" stop-color="#737373"/>
</linearGradient>
<linearGradient id="paint2_linear_303_2" x1="1059" y1="149" x2="954.91" y2="261.715" gradientUnits="userSpaceOnUse">
<stop stop-color="#D9D9D9"/>
<stop offset="1" stop-color="#737373"/>
</linearGradient>
</defs>
</svg>
