<svg width="958" height="748" viewBox="0 0 958 748" fill="none" xmlns="http://www.w3.org/2000/svg">
<path d="M396.352 194.53C369.489 207.711 361.325 249.097 378.18 286.003C385.291 301.292 385.291 301.292 380.814 317.372C378.443 326.335 375.283 335.034 373.966 336.879C372.649 338.725 363.958 344.26 354.477 349.533C331.828 361.922 314.709 375.366 307.335 385.911C300.224 396.719 293.377 418.598 281.262 470.793C265.987 535.377 266.25 560.157 282.052 577.818C295.22 592.317 299.434 592.844 415.314 591.526C473.254 590.999 560.164 590.472 608.097 590.735C673.937 590.735 696.06 589.944 699.484 587.308C702.117 585.727 708.965 570.965 714.759 555.148C730.561 512.97 754 443.378 754 439.16C754 437.315 752.156 433.624 749.786 431.515C746.362 427.825 734.511 427.297 662.086 427.297C589.134 427.297 577.81 427.825 574.649 431.515C572.806 433.624 564.642 453.658 556.214 475.538C540.149 519.033 540.412 518.77 520.396 515.607C511.969 514.288 508.282 512.443 506.438 508.225C505.121 505.062 500.381 482.128 495.904 457.612C485.369 401.464 480.102 387.756 463.773 370.358C451.658 357.704 451.132 356.123 451.132 342.151C451.132 330.025 451.922 327.126 456.136 325.808C472.464 320.799 485.369 300.501 485.369 280.467C485.106 259.642 478.522 228.272 472.201 218.782C456.399 194.53 419.791 182.931 396.352 194.53ZM466.67 239.344C470.094 249.888 472.201 262.541 472.201 274.14C472.201 291.011 471.411 293.384 464.3 301.819C459.823 306.564 451.658 312.627 446.128 315C434.013 319.745 431.116 323.435 435.33 328.444C439.28 333.189 436.91 358.759 432.433 361.395C425.322 365.876 390.558 349.005 390.558 340.833C390.558 338.461 392.402 328.707 395.035 319.217C399.249 302.346 399.249 301.556 393.718 286.793C386.344 267.023 386.081 253.051 393.455 246.461C398.986 241.453 398.986 241.716 406.36 249.625C410.31 254.37 414.261 259.642 415.051 261.487C416.104 264.387 417.421 263.859 420.582 259.905C429.273 248.307 457.716 220.1 459.559 221.418C460.349 222.209 463.773 230.381 466.67 239.344ZM396.352 364.031C411.627 373.785 414.261 374.575 431.643 374.575C452.449 374.575 456.399 377.212 466.407 397.246C471.937 408.054 488.529 486.082 491.953 516.661C493.797 532.478 493.533 533.532 489.056 531.423C486.159 530.105 464.3 528.26 440.334 527.205C376.336 524.306 361.588 522.46 361.588 517.188C361.588 514.816 364.485 500.581 367.909 485.291C374.493 456.822 373.703 448.386 364.748 453.395C360.535 455.767 348.947 500.317 348.683 514.816C348.42 521.933 347.893 522.197 334.988 522.197C322.61 522.197 321.82 522.724 322.61 528.26C323.4 533.796 324.717 534.059 360.271 535.904C380.55 536.959 402.146 538.541 408.467 539.331L419.528 540.913V557.784V574.391L397.932 576.237C385.818 577.291 360.798 578.346 341.836 578.346C301.278 578.346 293.377 575.709 286.793 559.102C280.735 544.076 281.526 534.323 291.533 487.928C311.022 397.773 315.499 388.81 351.58 366.931C363.695 359.813 374.756 353.75 376.6 353.75C378.443 353.487 387.398 358.232 396.352 364.031ZM729.244 473.956C712.125 524.569 695.533 570.437 692.636 574.391C690.793 576.764 671.304 577.555 611.52 577.555C568.065 577.555 532.775 577.028 532.775 576.237C532.775 575.709 538.568 560.42 545.679 542.758C552.527 524.833 564.115 494.518 570.962 475.274L583.604 440.478H662.086H740.568L729.244 473.956ZM534.091 534.586C533.038 537.222 529.878 545.922 526.98 553.83C521.713 567.274 521.186 567.801 519.08 561.738C517.763 558.048 514.866 553.83 512.759 551.985C510.389 550.403 507.755 544.604 506.438 539.595L504.331 530.105H520.133C534.091 530.105 535.672 530.632 534.091 534.586ZM480.365 544.34C485.369 546.449 491.69 550.403 494.06 553.303C498.801 558.575 498.801 558.575 491.163 560.42C486.949 561.211 478.258 561.738 471.937 561.475C465.617 561.211 455.872 563.056 450.078 565.429C435.857 571.755 432.696 569.646 432.696 553.83V540.649H452.185C462.983 540.649 475.625 542.231 480.365 544.34Z" fill="black"/>
<circle cx="373" cy="404" r="241" fill="#D9D9D9" fill-opacity="0.35"/>
<ellipse cx="824" cy="493.5" rx="134" ry="136.5" fill="#AAAAAA" fill-opacity="0.71"/>
<ellipse cx="240.844" cy="390.728" rx="19.3893" ry="19.0581" transform="rotate(16.2748 240.844 390.728)" fill="#C9C9C9" fill-opacity="0.43"/>
<ellipse cx="785" cy="149" rx="147" ry="149" fill="#505050" fill-opacity="0.14"/>
<circle cx="46" cy="226" r="46" fill="#D9D9D9" fill-opacity="0.23"/>
<circle cx="229" cy="663" r="85" fill="#D9D9D9" fill-opacity="0.46"/>
<ellipse cx="777.078" cy="612.728" rx="72" ry="49.5" transform="rotate(-29.7867 777.078 612.728)" fill="black" fill-opacity="0.1"/>
<path d="M244 249C272 161 344.259 66.4 512.259 140C722.259 232 754.259 174 848.259 102" stroke="black" stroke-width="11"/>
<path d="M754 96H843C845.761 96 848 98.2386 848 101V180" stroke="black" stroke-width="11"/>
</svg>
