<svg width="951" height="820" viewBox="0 0 951 820" fill="none" xmlns="http://www.w3.org/2000/svg">
<path d="M222 617V129C222 110.775 236.775 96 255 96H707C725.225 96 740 110.775 740 129V617C740 635.225 725.225 650 707 650H255C236.775 650 222 635.225 222 617Z" stroke="black" stroke-width="11"/>
<path d="M446 382H547" stroke="black" stroke-width="9"/>
<path d="M446 404H583" stroke="black" stroke-width="9"/>
<path d="M446 222H547" stroke="black" stroke-width="9"/>
<path d="M446 244H583" stroke="black" stroke-width="9"/>
<path d="M448 553H549" stroke="black" stroke-width="9"/>
<path d="M448 575H585" stroke="black" stroke-width="9"/>
<path d="M306 279V221C306 211.059 314.059 203 324 203H389C398.941 203 407 211.059 407 221V279C407 288.941 398.941 297 389 297H324C314.059 297 306 288.941 306 279Z" stroke="black" stroke-width="7"/>
<path d="M304 418V360C304 350.059 312.059 342 322 342H387C396.941 342 405 350.059 405 360V418C405 427.941 396.941 436 387 436H322C312.059 436 304 427.941 304 418Z" stroke="black" stroke-width="7"/>
<path d="M307 555V497C307 487.059 315.059 479 325 479H390C399.941 479 408 487.059 408 497V555C408 564.941 399.941 573 390 573H325C315.059 573 307 564.941 307 555Z" stroke="black" stroke-width="7"/>
<path d="M329 392.108L343.497 408.507C345.831 411.147 350.089 410.61 351.694 407.474L376 360" stroke="black" stroke-width="6"/>
<circle cx="94" cy="815" r="5" fill="black"/>
<circle cx="87" cy="714" r="5" fill="black"/>
<circle cx="99" cy="536" r="5" fill="black"/>
<circle cx="172" cy="625" r="5" fill="black"/>
<circle cx="82" cy="607" r="5" fill="black"/>
<circle cx="8" cy="500" r="5" fill="black"/>
<circle cx="187" cy="714" r="5" fill="black"/>
<circle cx="133" cy="671" r="5" fill="black"/>
<circle cx="133" cy="759" r="5" fill="black"/>
<circle cx="37" cy="692" r="5" fill="black"/>
<circle cx="66" cy="657" r="5" fill="black"/>
<circle cx="118" cy="466" r="5" fill="black"/>
<circle cx="66" cy="489" r="5" fill="black"/>
<circle cx="9" cy="426" r="5" fill="black"/>
<circle cx="5" cy="354" r="5" fill="black"/>
<circle cx="66" cy="405" r="5" fill="black"/>
<circle cx="111" cy="380" r="5" fill="black"/>
<circle cx="22" cy="574" r="5" fill="black"/>
<circle cx="852" cy="305" r="5" fill="black"/>
<circle cx="815" cy="367" r="5" fill="black"/>
<circle cx="151" cy="407" r="5" fill="black"/>
<circle cx="783" cy="307" r="5" fill="black"/>
<circle cx="775" cy="416" r="5" fill="black"/>
<circle cx="175" cy="469" r="5" fill="black"/>
<circle cx="946" cy="434" r="5" fill="black"/>
<circle cx="94" cy="334" r="5" fill="black"/>
<circle cx="87" cy="236" r="5" fill="black"/>
<circle cx="118" cy="79" r="5" fill="black"/>
<circle cx="41" cy="197" r="5" fill="black"/>
<circle cx="172" cy="146" r="5" fill="black"/>
<circle cx="187" cy="236" r="5" fill="black"/>
<circle cx="133" cy="192" r="5" fill="black"/>
<circle cx="133" cy="280" r="5" fill="black"/>
<circle cx="48" cy="294" r="5" fill="black"/>
<circle cx="192" cy="381" r="5" fill="black"/>
<circle cx="5" cy="5" r="5" transform="matrix(0.7282 -0.685364 0.702387 0.711795 523 14.3969)" fill="black"/>
<circle cx="5" cy="5" r="5" transform="matrix(0.7282 -0.685364 0.702387 0.711795 338 25.3969)" fill="black"/>
<circle cx="5" cy="5" r="5" transform="matrix(0.7282 -0.685364 0.702387 0.711795 167 328.397)" fill="black"/>
<circle cx="5" cy="5" r="5" transform="matrix(0.7282 -0.685364 0.702387 0.711795 225 51.3969)" fill="black"/>
<circle cx="5" cy="5" r="5" transform="matrix(0.7282 -0.685364 0.702387 0.711795 425.213 68.4182)" fill="black"/>
<circle cx="5" cy="5" r="5" transform="matrix(0.7282 -0.685364 0.702387 0.711795 351.569 68.397)" fill="black"/>
<circle cx="5" cy="5" r="5" transform="matrix(0.7282 -0.685364 0.702387 0.711795 283.23 71.0864)" fill="black"/>
<circle cx="5" cy="5" r="5" transform="matrix(0.7282 -0.685364 0.702387 0.711795 164 96.3969)" fill="black"/>
<circle cx="5" cy="5" r="5" transform="matrix(0.7282 -0.685364 0.702387 0.711795 283 25.2097)" fill="black"/>
<circle cx="5" cy="5" r="5" transform="matrix(0.7282 -0.685364 0.702387 0.711795 78 151.397)" fill="black"/>
<circle cx="5" cy="5" r="5" transform="matrix(0.7282 -0.685364 0.702387 0.711795 738 51.3969)" fill="black"/>
<circle cx="601" cy="52" r="5" fill="black"/>
<circle cx="806" cy="125" r="5" fill="white"/>
<circle cx="430" cy="5" r="5" fill="black"/>
<circle cx="549" cy="57" r="5" fill="black"/>
<circle cx="638" cy="41" r="5" fill="black"/>
<circle cx="5" cy="5" r="5" transform="matrix(0.7282 -0.685364 0.702387 0.711795 806.652 252.236)" fill="black"/>
<circle cx="5" cy="5" r="5" transform="matrix(0.7282 -0.685364 0.702387 0.711795 855.041 277.365)" fill="black"/>
<circle cx="5" cy="5" r="5" transform="matrix(0.7282 -0.685364 0.702387 0.711795 863 462.397)" fill="black"/>
<circle cx="5" cy="5" r="5" transform="matrix(0.7282 -0.685364 0.702387 0.711795 778.188 205.254)" fill="black"/>
<circle cx="5" cy="5" r="5" transform="matrix(0.7282 -0.685364 0.702387 0.711795 856.314 578.913)" fill="black"/>
<circle cx="5" cy="5" r="5" transform="matrix(0.7282 -0.685364 0.702387 0.711795 491 46.3969)" fill="black"/>
<circle cx="5" cy="5" r="5" transform="matrix(0.7282 -0.685364 0.702387 0.711795 879 341.397)" fill="black"/>
<circle cx="5" cy="5" r="5" transform="matrix(0.7282 -0.685364 0.702387 0.711795 831 181.397)" fill="black"/>
<circle cx="5" cy="5" r="5" transform="matrix(0.7282 -0.685364 0.702387 0.711795 904.108 202.296)" fill="black"/>
<circle cx="5" cy="5" r="5" transform="matrix(0.7282 -0.685364 0.702387 0.711795 862.682 406.978)" fill="black"/>
<circle cx="5" cy="5" r="5" transform="matrix(0.7282 -0.685364 0.702387 0.711795 914.278 533.021)" fill="black"/>
<circle cx="5" cy="5" r="5" transform="matrix(0.7282 -0.685364 0.702387 0.711795 811.745 526.01)" fill="black"/>
<circle cx="5" cy="5" r="5" transform="matrix(0.7282 -0.685364 0.702387 0.711795 830.524 642.662)" fill="black"/>
<circle cx="5" cy="5" r="5" transform="matrix(0.7282 -0.685364 0.702387 0.711795 791 474.397)" fill="black"/>
<circle cx="5" cy="5" r="5" transform="matrix(0.7282 -0.685364 0.702387 0.711795 773.542 561.719)" fill="black"/>
<circle cx="5" cy="5" r="5" transform="matrix(0.7282 -0.685364 0.702387 0.711795 773.542 654.3)" fill="black"/>
<circle cx="5" cy="5" r="5" transform="matrix(0.7282 -0.685364 0.702387 0.711795 802.831 608.01)" fill="black"/>
<ellipse cx="219" cy="574" rx="85" ry="89" fill="url(#paint0_linear_303_3)"/>
<path d="M177 580.703L205.084 612.5C207.417 615.142 211.678 614.605 213.283 611.467L257 526" stroke="black" stroke-width="12"/>
<circle cx="724" cy="141" r="133" fill="url(#paint1_linear_303_3)"/>
<circle cx="753.5" cy="692.5" r="72.5" fill="url(#paint2_linear_303_3)"/>
<path d="M724 692.216L744.68 715.533C747.014 718.163 751.262 717.627 752.868 714.5L786 650" stroke="black" stroke-width="8"/>
<path d="M693 190.17V91.2942C693 86.4853 698.374 83.6304 702.359 86.3224L778.354 137.662C781.951 140.091 781.857 145.418 778.177 147.72L702.182 195.257C698.186 197.756 693 194.883 693 190.17Z" stroke="black" stroke-width="10"/>
<defs>
<linearGradient id="paint0_linear_303_3" x1="219" y1="485" x2="127.235" y2="708.219" gradientUnits="userSpaceOnUse">
<stop offset="0.326923" stop-color="#DADADA"/>
<stop offset="0.706731" stop-color="#9F9F9F"/>
<stop offset="1" stop-color="#737373"/>
</linearGradient>
<linearGradient id="paint1_linear_303_3" x1="652.86" y1="188.942" x2="846.174" y2="15.7326" gradientUnits="userSpaceOnUse">
<stop offset="0.322115" stop-color="#D9D9D9"/>
<stop offset="1" stop-color="#737373"/>
</linearGradient>
<linearGradient id="paint2_linear_303_3" x1="702.849" y1="620" x2="583.671" y2="804.726" gradientUnits="userSpaceOnUse">
<stop stop-color="#D9D9D9"/>
<stop offset="1" stop-color="#737373"/>
</linearGradient>
</defs>
</svg>
